<svg xmlns="http://www.w3.org/2000/svg" viewBox="0 0 40 40">
  <g id="ai-bubbles" stroke="none" stroke-width="1" fill="none" fill-rule="evenodd">
    <g id="icons8-Bubbles-114249-50-000000-(2)" fill-rule="nonzero">
      <path d="M1.5 8.5c-.55 0-1 .45-1 1s.45 1 1 1 1-.45 1-1-.45-1-1-1ZM33.5 1c-.277 0-.5.223-.5.5s.223.5.5.5.5-.223.5-.5-.223-.5-.5-.5Z" id="Shape" fill="#ABABAB"/>
      <path d="M20 1.5C9.781 1.5 1.5 9.781 1.5 20S9.781 38.5 20 38.5 38.5 30.219 38.5 20 30.219 1.5 20 1.5Z" id="Shape" fill="#F5F5F5"/>
      <path d="M36.5.5a1.999 1.999 0 1 0 0 4 1.999 1.999 0 1 0 0-4ZM38.5 6c-.55 0-1 .45-1 1s.45 1 1 1 1-.45 1-1-.45-1-1-1ZM35.5 32c-.55 0-1 .45-1 1s.45 1 1 1 1-.45 1-1-.45-1-1-1Zm-33-7.5a1.999 1.999 0 1 0 0 4 1.999 1.999 0 1 0 0-4ZM7.5 37.5c-.55 0-1 .45-1 1s.45 1 1 1 1-.45 1-1-.45-1-1-1ZM4.25 20.5c-.691 0-1.25.559-1.25 1.25S3.559 23 4.25 23s1.25-.559 1.25-1.25-.559-1.25-1.25-1.25ZM5.5 28c-.277 0-.5.223-.5.5s.223.5.5.5.5-.223.5-.5-.223-.5-.5-.5Z" id="Shape" fill="#ABABAB"/>
      <path d="M35 11.5c-.277 0-.5.223-.5.5s.223.5.5.5.5-.223.5-.5-.223-.5-.5-.5Z" id="Shape" fill="#FFFFFF"/>
      <path id="Shape" fill="#472B29" d="m25.797 21.281.094-.664 3.164.442-.09.664z"/>
      <path d="M31.145 23.875a2.172 2.172 0 1 1 0-4.343 2.172 2.172 0 0 1 0 4.343Z" id="Shape" fill="#C2C2C2"/>
      <path d="M31.145 19.883c1.003 0 1.82.816 1.82 1.82s-.817 1.82-1.82 1.82a1.822 1.822 0 0 1-1.82-1.82c0-1.004.816-1.82 1.82-1.82Zm0-.703a2.521 2.521 0 1 0 .003 5.043 2.521 2.521 0 0 0-.003-5.043Z" id="Shape" fill="#472B29"/>
      <path d="M25.094 12.441a2.172 2.172 0 0 1 0-4.343c1.195 0 2.172.976 2.172 2.172 0 1.199-.977 2.171-2.172 2.171Z" id="Shape" fill="#ABABAB"/>
      <path d="M25.094 8.45a1.822 1.822 0 0 1 0 3.644 1.823 1.823 0 0 1 0-3.645Zm0-.7a2.521 2.521 0 1 0-.004 5.043 2.521 2.521 0 0 0 .004-5.043Z" id="Shape" fill="#472B29"/>
      <path d="M12.484 13.113a2.341 2.341 0 0 1-2.34-2.34c0-1.289 1.051-2.34 2.34-2.34 1.29 0 2.34 1.051 2.34 2.34 0 1.293-1.05 2.34-2.34 2.34Z" id="Shape" fill="#ABABAB"/>
      <path d="M12.484 8.785a1.991 1.991 0 0 1 0 3.98 1.991 1.991 0 0 1 0-3.98Zm0-.7a2.69 2.69 0 1 0-.001 5.382 2.69 2.69 0 0 0 .001-5.381Z" id="Shape" fill="#472B29"/>
      <path d="M12.316 24.574a2.506 2.506 0 0 0-2.507 2.508 2.506 2.506 0 0 0 2.507 2.508 2.506 2.506 0 0 0 2.508-2.508 2.506 2.506 0 0 0-2.508-2.508Z" id="Shape" fill="#ABABAB"/>
      <path d="M12.316 24.926a2.159 2.159 0 0 1 0 4.316 2.159 2.159 0 0 1 0-4.316Zm0-.703a2.86 2.86 0 0 0-2.859 2.859 2.86 2.86 0 0 0 2.86 2.86 2.86 2.86 0 0 0 2.859-2.86 2.86 2.86 0 0 0-2.86-2.86Z" id="Shape" fill="#472B29"/>
      <path d="M26.941 31.945c-1.289 0-2.34-1.05-2.34-2.34 0-1.293 1.051-2.34 2.34-2.34 1.29 0 2.34 1.047 2.34 2.34 0 1.29-1.05 2.34-2.34 2.34Z" id="Shape" fill="#ABABAB"/>
      <path d="M26.941 27.613c1.098 0 1.993.895 1.993 1.992a1.995 1.995 0 0 1-1.993 1.989 1.991 1.991 0 0 1 0-3.98Zm0-.699a2.688 2.688 0 0 0-2.687 2.691 2.69 2.69 0 1 0 2.688-2.691Z" id="Shape" fill="#472B29"/>
      <path d="M21.898 25.215a5.033 5.033 0 0 1-5.027-5.024 5.034 5.034 0 0 1 5.027-5.027 5.031 5.031 0 0 1 5.028 5.027 5.03 5.03 0 0 1-5.028 5.024Z" id="Shape" fill="#ABABAB"/>
      <path d="M21.898 15.512a4.682 4.682 0 0 1 4.676 4.68 4.681 4.681 0 0 1-4.676 4.675 4.681 4.681 0 0 1-4.675-4.676 4.682 4.682 0 0 1 4.675-4.68Zm0-.7a5.377 5.377 0 0 0 0 10.754 5.373 5.373 0 0 0 5.375-5.378 5.372 5.372 0 0 0-5.375-5.375Z" id="Shape" fill="#472B29"/>
      <path d="M18.402 20.863a.168.168 0 0 1-.164-.144 3.704 3.704 0 0 1 3.836-4.223.167.167 0 0 1 .16.176c-.004.094-.09.168-.175.16-.055-.004-.106-.004-.16-.004a3.366 3.366 0 0 0-3.329 3.844.173.173 0 0 1-.14.191h-.028Zm3.496 3.024c-1.14 0-2.199-.512-2.906-1.407a.172.172 0 0 1 .028-.238.176.176 0 0 1 .238.028 3.365 3.365 0 0 0 5.813-.96.168.168 0 0 1 .214-.103.17.17 0 0 1 .102.215 3.7 3.7 0 0 1-3.489 2.465Zm3.497-3.024c-.008 0-.016 0-.024-.004a.167.167 0 0 1-.144-.187c.023-.16.035-.32.035-.48 0-.055-.004-.11-.004-.165a.172.172 0 0 1 .16-.175.167.167 0 0 1 .176.16c.004.058.004.117.004.18 0 .175-.012.351-.04.527a.168.168 0 0 1-.163.144Zm-.067-1.347a.171.171 0 0 1-.164-.125 3.832 3.832 0 0 0-.094-.32.168.168 0 0 1 .317-.114c.039.113.074.23.105.352.02.09-.035.18-.125.203-.012.004-.027.004-.039.004Zm-12.691-7.282a.145.145 0 0 1-.145-.132.142.142 0 0 1 .13-.16c.222-.024.429-.114.605-.255a.148.148 0 0 1 .207.024c.05.062.039.152-.024.203-.219.18-.48.29-.758.316-.004.004-.011.004-.015.004Zm1.097-.87a.104.104 0 0 1-.046-.012.145.145 0 0 1-.09-.188 1.176 1.176 0 0 0-1.11-1.563c-.496 0-.937.313-1.105.782a.145.145 0 0 1-.188.09.148.148 0 0 1-.09-.188 1.475 1.475 0 0 1 1.383-.976 1.466 1.466 0 0 1 1.387 1.957.152.152 0 0 1-.14.097Zm13.207 19.698a1.457 1.457 0 0 1-1.457-1.457c0-.082.063-.148.145-.148.082 0 .144.066.144.148 0 .641.524 1.168 1.168 1.168.266 0 .528-.093.735-.261a.148.148 0 0 1 .207.023c.05.063.039.152-.024.203-.257.211-.586.325-.918.325ZM28.246 29.895h-.016a.148.148 0 0 1-.128-.16c.007-.044.007-.087.007-.13 0-.136-.023-.265-.066-.39a.147.147 0 0 1 .09-.188.148.148 0 0 1 .187.09 1.473 1.473 0 0 1 .075.649.151.151 0 0 1-.149.129ZM27.816 28.77a.148.148 0 0 1-.093-.036 1.173 1.173 0 0 0-.782-.297.147.147 0 0 1 0-.293c.36 0 .707.133.973.372a.144.144 0 0 1 .012.207.142.142 0 0 1-.11.047ZM22.871 15.551l1.051-3.02.633.223-1.047 3.019zM23.949 24.711l.602-.301 1.367 2.699-.598.305zM14.09 12.734l.473-.476 4.109 4.109-.477.477zM14.285 25.313l3.43-2.848.43.515-3.43 2.848z" id="Shape" fill="#472B29"/>
    </g>
  </g>
</svg>
