<!-- Animated using SVGANIMA - https://svganima.com -->
<svg id="el5WDqSHF3g1" xmlns="http://www.w3.org/2000/svg" xmlns:xlink="http://www.w3.org/1999/xlink" viewBox="0 0 36 36" shape-rendering="geometricPrecision" text-rendering="geometricPrecision" preserveAspectRatio="xMidYMid" width="NaN" height="NaN"><defs id="defs9539"></defs><path id="el5WDqSHF3g2" d=" M 7.875,33.75 c -0.484375,0 -0.914062 -0.308594 -1.066406 -0.769531 L 5.671875,29.578125 L 2.269531,28.441406 C 1.808594,28.289062,1.5,27.859375,1.5,27.375 s 0.308594 -0.914062 0.769531 -1.066406 l 3.402344 -1.136719 l 1.136719 -3.402344 C 6.960938,21.308594,7.390625,21,7.875,21 s 0.914062 0.308594,1.066406 0.769531 l 1.136719,3.402344 l 3.402344,1.136719 c 0.460937 0.152344 0.769531 0.582031 0.769531,1.066406 s -0.308594 0.914062 -0.769531,1.066406 l -3.402344,1.136719 -1.136719,3.402344 C 8.789062,33.441406,8.359375,33.75,7.875,33.75 Z m 0,0" opacity="0.37" fill="#132ff2"><animate attributeType="auto" attributeName="opacity" values="0.37;0.37;0.37;1;0.37" calcMode="spline" keyTimes="0;0.11000000000000001;0.3;0.45709999999999995;1" keySplines="0 0 1 1;0 0 1 1;0 0 1 1;0 0 1 1" dur="10s" begin="0s" repeatCount="indefinite" additive="replace" accumulate="none" fill="freeze" id="animate6189"></animate></path><path id="el5WDqSHF3g3" d=" M 23.625,30.75 c -0.488281,0 -0.921875 -0.316406 -1.070312 -0.78125 l -2.195313 -6.828125 -6.828125 -2.195313 c -0.464844 -0.148437 -0.78125 -0.582031 -0.78125 -1.070312 s 0.316406 -0.921875 0.78125 -1.070312 l 6.828125 -2.195313 L 22.554688,9.78125 C 22.703125,9.316406,23.136719,9,23.625,9 s 0.921875 0.316406,1.070312 0.78125 l 2.195313,6.828125 l 6.828125,2.195313 c 0.464844 0.148437 0.78125 0.582031 0.78125,1.070312 s -0.316406 0.921875 -0.78125,1.070312 l -6.828125,2.195313 -2.195313,6.828125 c -0.148437 0.464844 -0.582031 0.78125 -1.070312 0.78125 Z " opacity="0.7" fill="#132ff2"><animate attributeType="auto" attributeName="opacity" values="0.7;1;0.3;0.7;1;0.7" calcMode="spline" keyTimes="0;0.17;0.36;0.5700000000000001;0.69;1" keySplines="0 0 1 1;0 0 1 1;0 0 1 1;0 0 1 1;0 0 1 1" dur="10s" begin="0s" repeatCount="1" additive="replace" accumulate="none" fill="freeze" id="animate7355"></animate></path><path id="el5WDqSHF3g4" d=" M 9,17.25 c -0.484375,0 -0.914062 -0.308594 -1.066406 -0.769531 L 6.515625,12.234375 L 2.269531,10.816406 C 1.808594,10.664062,1.5,10.234375,1.5,9.75 s 0.308594 -0.914062 0.769531 -1.066406 L 6.515625,7.265625 L 7.933594,3.019531 C 8.085938,2.558594,8.515625,2.25,9,2.25 s 0.914062 0.308594,1.066406 0.769531 l 1.417969,4.246094 l 4.246094,1.417969 C 16.191406,8.835938,16.5,9.265625,16.5,9.75 s -0.308594 0.914062 -0.769531,1.066406 l -4.246094,1.417969 -1.417969,4.246094 C 9.914062,16.941406,9.484375,17.25,9,17.25 Z " fill="#132ff2"><animate attributeType="auto" attributeName="opacity" values="1;1;0.3;0.2;1" calcMode="spline" keyTimes="0;0.21000000000000005;0.3798;0.5299;1" keySplines="0 0 1 1;0 0 1 1;0 0 1 1;0 0 1 1" dur="10s" begin="0s" repeatCount="indefinite" additive="replace" accumulate="none" fill="freeze" id="animate6402"></animate></path>
</svg>